<mxfile host="app.diagrams.net" agent="Mozilla/5.0 (Windows NT 10.0; Win64; x64) AppleWebKit/537.36 (KHTML, like Gecko) Chrome/141.0.0.0 Safari/537.36" version="28.2.8">
  <diagram name="Page-1" id="xd1S-p52yk0DE2NdsRaZ">
    <mxGraphModel grid="1" page="1" gridSize="10" guides="1" tooltips="1" connect="1" arrows="1" fold="1" pageScale="1" pageWidth="850" pageHeight="1100" math="0" shadow="0">
      <root>
        <mxCell id="0" />
        <mxCell id="1" parent="0" />
        <mxCell id="tPzeA0ZCraDQcKaCvDTb-5" value="" style="edgeStyle=orthogonalEdgeStyle;rounded=0;orthogonalLoop=1;jettySize=auto;html=1;" edge="1" parent="1" source="tPzeA0ZCraDQcKaCvDTb-1" target="tPzeA0ZCraDQcKaCvDTb-4">
          <mxGeometry relative="1" as="geometry" />
        </mxCell>
        <mxCell id="tPzeA0ZCraDQcKaCvDTb-1" value="Request" style="rounded=1;whiteSpace=wrap;html=1;" vertex="1" parent="1">
          <mxGeometry x="340" y="40" width="120" height="60" as="geometry" />
        </mxCell>
        <mxCell id="tPzeA0ZCraDQcKaCvDTb-23" style="edgeStyle=orthogonalEdgeStyle;rounded=0;orthogonalLoop=1;jettySize=auto;html=1;exitX=0;exitY=0.5;exitDx=0;exitDy=0;entryX=0.5;entryY=0;entryDx=0;entryDy=0;" edge="1" parent="1" source="tPzeA0ZCraDQcKaCvDTb-4" target="tPzeA0ZCraDQcKaCvDTb-6">
          <mxGeometry relative="1" as="geometry">
            <Array as="points">
              <mxPoint x="200" y="210" />
            </Array>
          </mxGeometry>
        </mxCell>
        <mxCell id="tPzeA0ZCraDQcKaCvDTb-4" value="f&lt;b&gt;ield_classifier:&lt;/b&gt;&lt;div&gt;LLM chooses the most likely field&lt;/div&gt;" style="whiteSpace=wrap;html=1;rounded=1;fillColor=#FF9999;" vertex="1" parent="1">
          <mxGeometry x="340" y="180" width="120" height="60" as="geometry" />
        </mxCell>
        <mxCell id="tPzeA0ZCraDQcKaCvDTb-26" style="edgeStyle=orthogonalEdgeStyle;rounded=0;orthogonalLoop=1;jettySize=auto;html=1;entryX=0;entryY=0.5;entryDx=0;entryDy=0;" edge="1" parent="1" source="tPzeA0ZCraDQcKaCvDTb-6" target="tPzeA0ZCraDQcKaCvDTb-25">
          <mxGeometry relative="1" as="geometry" />
        </mxCell>
        <mxCell id="tPzeA0ZCraDQcKaCvDTb-6" value="&lt;b&gt;field_validator:&lt;/b&gt;&lt;div&gt;LLM sanity-checks the chosen field&lt;/div&gt;" style="whiteSpace=wrap;html=1;rounded=1;fillColor=#FF9999;" vertex="1" parent="1">
          <mxGeometry x="140" y="330" width="120" height="60" as="geometry" />
        </mxCell>
        <mxCell id="tPzeA0ZCraDQcKaCvDTb-30" value="" style="edgeStyle=orthogonalEdgeStyle;rounded=0;orthogonalLoop=1;jettySize=auto;html=1;" edge="1" parent="1" source="tPzeA0ZCraDQcKaCvDTb-11" target="tPzeA0ZCraDQcKaCvDTb-29">
          <mxGeometry relative="1" as="geometry" />
        </mxCell>
        <mxCell id="tPzeA0ZCraDQcKaCvDTb-11" value="&lt;b&gt;field_enhancer:&lt;/b&gt;&lt;div&gt;&lt;b&gt;&lt;br&gt;&lt;/b&gt;&lt;div&gt;Proposes a new field&lt;/div&gt;&lt;/div&gt;" style="whiteSpace=wrap;html=1;rounded=1;fillColor=#FF9999;" vertex="1" parent="1">
          <mxGeometry x="740" y="330" width="120" height="60" as="geometry" />
        </mxCell>
        <mxCell id="tPzeA0ZCraDQcKaCvDTb-22" value="YES" style="edgeStyle=orthogonalEdgeStyle;rounded=0;orthogonalLoop=1;jettySize=auto;html=1;exitX=1;exitY=0.5;exitDx=0;exitDy=0;entryX=0;entryY=0.5;entryDx=0;entryDy=0;" edge="1" parent="1" source="tPzeA0ZCraDQcKaCvDTb-19" target="tPzeA0ZCraDQcKaCvDTb-11">
          <mxGeometry relative="1" as="geometry" />
        </mxCell>
        <mxCell id="tPzeA0ZCraDQcKaCvDTb-28" value="NO" style="edgeStyle=orthogonalEdgeStyle;rounded=0;orthogonalLoop=1;jettySize=auto;html=1;entryX=1;entryY=0.5;entryDx=0;entryDy=0;" edge="1" parent="1" source="tPzeA0ZCraDQcKaCvDTb-19" target="tPzeA0ZCraDQcKaCvDTb-4">
          <mxGeometry x="-0.6" relative="1" as="geometry">
            <Array as="points">
              <mxPoint x="600" y="210" />
            </Array>
            <mxPoint as="offset" />
          </mxGeometry>
        </mxCell>
        <mxCell id="tPzeA0ZCraDQcKaCvDTb-19" value="Need to&amp;nbsp;&lt;span style=&quot;background-color: transparent; color: light-dark(rgb(0, 0, 0), rgb(255, 255, 255));&quot;&gt;add&lt;/span&gt;&lt;div&gt;&lt;span style=&quot;background-color: transparent; color: light-dark(rgb(0, 0, 0), rgb(255, 255, 255));&quot;&gt;a new field?&lt;/span&gt;&lt;/div&gt;" style="rhombus;whiteSpace=wrap;html=1;" vertex="1" parent="1">
          <mxGeometry x="540" y="320" width="120" height="80" as="geometry" />
        </mxCell>
        <mxCell id="tPzeA0ZCraDQcKaCvDTb-27" value="NO" style="edgeStyle=orthogonalEdgeStyle;rounded=0;orthogonalLoop=1;jettySize=auto;html=1;exitX=1;exitY=0.5;exitDx=0;exitDy=0;entryX=0;entryY=0.5;entryDx=0;entryDy=0;" edge="1" parent="1" source="tPzeA0ZCraDQcKaCvDTb-25" target="tPzeA0ZCraDQcKaCvDTb-19">
          <mxGeometry relative="1" as="geometry" />
        </mxCell>
        <mxCell id="tPzeA0ZCraDQcKaCvDTb-48" style="edgeStyle=orthogonalEdgeStyle;rounded=0;orthogonalLoop=1;jettySize=auto;html=1;exitX=0.5;exitY=1;exitDx=0;exitDy=0;entryX=0.5;entryY=0;entryDx=0;entryDy=0;" edge="1" parent="1" source="tPzeA0ZCraDQcKaCvDTb-25" target="tPzeA0ZCraDQcKaCvDTb-38">
          <mxGeometry relative="1" as="geometry" />
        </mxCell>
        <mxCell id="tPzeA0ZCraDQcKaCvDTb-51" value="YES" style="edgeLabel;html=1;align=center;verticalAlign=middle;resizable=0;points=[];" connectable="0" vertex="1" parent="tPzeA0ZCraDQcKaCvDTb-48">
          <mxGeometry x="-0.185" y="-3" relative="1" as="geometry">
            <mxPoint as="offset" />
          </mxGeometry>
        </mxCell>
        <mxCell id="tPzeA0ZCraDQcKaCvDTb-25" value="Satisfied with classification?" style="rhombus;whiteSpace=wrap;html=1;" vertex="1" parent="1">
          <mxGeometry x="340" y="320" width="120" height="80" as="geometry" />
        </mxCell>
        <mxCell id="tPzeA0ZCraDQcKaCvDTb-32" style="edgeStyle=orthogonalEdgeStyle;rounded=0;orthogonalLoop=1;jettySize=auto;html=1;entryX=1;entryY=0.5;entryDx=0;entryDy=0;exitX=0.5;exitY=0;exitDx=0;exitDy=0;" edge="1" parent="1" source="tPzeA0ZCraDQcKaCvDTb-29" target="tPzeA0ZCraDQcKaCvDTb-4">
          <mxGeometry relative="1" as="geometry">
            <Array as="points">
              <mxPoint x="1000" y="210" />
            </Array>
          </mxGeometry>
        </mxCell>
        <mxCell id="tPzeA0ZCraDQcKaCvDTb-29" value="&lt;b&gt;field_updater:&lt;/b&gt;&lt;div&gt;Places the proposed field into a mapping&lt;/div&gt;" style="whiteSpace=wrap;html=1;rounded=1;fillColor=#A9C4EB;" vertex="1" parent="1">
          <mxGeometry x="940" y="330" width="120" height="60" as="geometry" />
        </mxCell>
        <mxCell id="tPzeA0ZCraDQcKaCvDTb-37" style="edgeStyle=orthogonalEdgeStyle;rounded=0;orthogonalLoop=1;jettySize=auto;html=1;exitX=0;exitY=0.5;exitDx=0;exitDy=0;entryX=0.5;entryY=0;entryDx=0;entryDy=0;" edge="1" parent="1" source="tPzeA0ZCraDQcKaCvDTb-38" target="tPzeA0ZCraDQcKaCvDTb-40">
          <mxGeometry relative="1" as="geometry">
            <Array as="points">
              <mxPoint x="200" y="510" />
            </Array>
          </mxGeometry>
        </mxCell>
        <mxCell id="tPzeA0ZCraDQcKaCvDTb-38" value="&lt;b&gt;subfield_classifier:&lt;/b&gt;&lt;div&gt;LLM chooses the most likely subfield&lt;/div&gt;" style="whiteSpace=wrap;html=1;rounded=1;fillColor=#FF9999;" vertex="1" parent="1">
          <mxGeometry x="340" y="480" width="120" height="60" as="geometry" />
        </mxCell>
        <mxCell id="tPzeA0ZCraDQcKaCvDTb-39" style="edgeStyle=orthogonalEdgeStyle;rounded=0;orthogonalLoop=1;jettySize=auto;html=1;entryX=0;entryY=0.5;entryDx=0;entryDy=0;" edge="1" parent="1" source="tPzeA0ZCraDQcKaCvDTb-40" target="tPzeA0ZCraDQcKaCvDTb-49">
          <mxGeometry relative="1" as="geometry">
            <mxPoint x="340" y="660" as="targetPoint" />
          </mxGeometry>
        </mxCell>
        <mxCell id="tPzeA0ZCraDQcKaCvDTb-40" value="&lt;b&gt;subfield_validator:&lt;/b&gt;&lt;div&gt;LLM sanity-checks the chosen subfield&lt;/div&gt;" style="whiteSpace=wrap;html=1;rounded=1;fillColor=#FF9999;" vertex="1" parent="1">
          <mxGeometry x="140" y="630" width="120" height="60" as="geometry" />
        </mxCell>
        <mxCell id="tPzeA0ZCraDQcKaCvDTb-41" value="" style="edgeStyle=orthogonalEdgeStyle;rounded=0;orthogonalLoop=1;jettySize=auto;html=1;" edge="1" parent="1" source="tPzeA0ZCraDQcKaCvDTb-42" target="tPzeA0ZCraDQcKaCvDTb-47">
          <mxGeometry relative="1" as="geometry" />
        </mxCell>
        <mxCell id="tPzeA0ZCraDQcKaCvDTb-42" value="&lt;b&gt;subfield_enhancer:&lt;/b&gt;&lt;div&gt;&lt;div&gt;Proposes a new subfield&lt;/div&gt;&lt;/div&gt;" style="whiteSpace=wrap;html=1;rounded=1;fillColor=#FF9999;" vertex="1" parent="1">
          <mxGeometry x="740" y="630" width="120" height="60" as="geometry" />
        </mxCell>
        <mxCell id="tPzeA0ZCraDQcKaCvDTb-43" value="YES" style="edgeStyle=orthogonalEdgeStyle;rounded=0;orthogonalLoop=1;jettySize=auto;html=1;exitX=1;exitY=0.5;exitDx=0;exitDy=0;entryX=0;entryY=0.5;entryDx=0;entryDy=0;" edge="1" parent="1" source="tPzeA0ZCraDQcKaCvDTb-50" target="tPzeA0ZCraDQcKaCvDTb-42">
          <mxGeometry relative="1" as="geometry">
            <mxPoint x="660" y="660" as="sourcePoint" />
          </mxGeometry>
        </mxCell>
        <mxCell id="tPzeA0ZCraDQcKaCvDTb-44" value="NO" style="edgeStyle=orthogonalEdgeStyle;rounded=0;orthogonalLoop=1;jettySize=auto;html=1;entryX=1;entryY=0.5;entryDx=0;entryDy=0;exitX=0.5;exitY=0;exitDx=0;exitDy=0;" edge="1" parent="1" source="tPzeA0ZCraDQcKaCvDTb-50" target="tPzeA0ZCraDQcKaCvDTb-38">
          <mxGeometry x="-0.6" relative="1" as="geometry">
            <mxPoint x="600" y="620" as="sourcePoint" />
            <Array as="points">
              <mxPoint x="600" y="510" />
            </Array>
            <mxPoint as="offset" />
          </mxGeometry>
        </mxCell>
        <mxCell id="tPzeA0ZCraDQcKaCvDTb-45" value="NO" style="edgeStyle=orthogonalEdgeStyle;rounded=0;orthogonalLoop=1;jettySize=auto;html=1;exitX=1;exitY=0.5;exitDx=0;exitDy=0;entryX=0;entryY=0.5;entryDx=0;entryDy=0;" edge="1" parent="1" target="tPzeA0ZCraDQcKaCvDTb-50">
          <mxGeometry relative="1" as="geometry">
            <mxPoint x="460" y="660" as="sourcePoint" />
            <mxPoint x="540" y="660" as="targetPoint" />
          </mxGeometry>
        </mxCell>
        <mxCell id="tPzeA0ZCraDQcKaCvDTb-46" style="edgeStyle=orthogonalEdgeStyle;rounded=0;orthogonalLoop=1;jettySize=auto;html=1;entryX=1;entryY=0.5;entryDx=0;entryDy=0;exitX=0.5;exitY=0;exitDx=0;exitDy=0;" edge="1" parent="1" source="tPzeA0ZCraDQcKaCvDTb-47" target="tPzeA0ZCraDQcKaCvDTb-38">
          <mxGeometry relative="1" as="geometry">
            <Array as="points">
              <mxPoint x="1000" y="510" />
            </Array>
          </mxGeometry>
        </mxCell>
        <mxCell id="tPzeA0ZCraDQcKaCvDTb-47" value="&lt;b&gt;subfield_updater:&lt;/b&gt;&lt;div&gt;Places the subfield into a mapping&lt;/div&gt;" style="whiteSpace=wrap;html=1;rounded=1;fillColor=#A9C4EB;" vertex="1" parent="1">
          <mxGeometry x="940" y="630" width="120" height="60" as="geometry" />
        </mxCell>
        <mxCell id="tPzeA0ZCraDQcKaCvDTb-53" value="" style="edgeStyle=orthogonalEdgeStyle;rounded=0;orthogonalLoop=1;jettySize=auto;html=1;entryX=0.5;entryY=0;entryDx=0;entryDy=0;" edge="1" parent="1" source="tPzeA0ZCraDQcKaCvDTb-49" target="tPzeA0ZCraDQcKaCvDTb-56">
          <mxGeometry relative="1" as="geometry">
            <mxPoint x="400" y="780" as="targetPoint" />
          </mxGeometry>
        </mxCell>
        <mxCell id="tPzeA0ZCraDQcKaCvDTb-49" value="Satisfied with classification?" style="rhombus;whiteSpace=wrap;html=1;" vertex="1" parent="1">
          <mxGeometry x="340" y="620" width="120" height="80" as="geometry" />
        </mxCell>
        <mxCell id="tPzeA0ZCraDQcKaCvDTb-50" value="Need to&amp;nbsp;&lt;span style=&quot;background-color: transparent; color: light-dark(rgb(0, 0, 0), rgb(255, 255, 255));&quot;&gt;add&amp;nbsp;&lt;/span&gt;&lt;span style=&quot;background-color: transparent; color: light-dark(rgb(0, 0, 0), rgb(255, 255, 255));&quot;&gt;a&amp;nbsp;&lt;/span&gt;&lt;div&gt;&lt;span style=&quot;background-color: transparent; color: light-dark(rgb(0, 0, 0), rgb(255, 255, 255));&quot;&gt;new subfield?&lt;/span&gt;&lt;/div&gt;" style="rhombus;whiteSpace=wrap;html=1;" vertex="1" parent="1">
          <mxGeometry x="540" y="620" width="120" height="80" as="geometry" />
        </mxCell>
        <mxCell id="tPzeA0ZCraDQcKaCvDTb-56" value="END" style="rounded=1;whiteSpace=wrap;html=1;" vertex="1" parent="1">
          <mxGeometry x="340" y="780" width="120" height="60" as="geometry" />
        </mxCell>
        <mxCell id="tPzeA0ZCraDQcKaCvDTb-61" value="Agent" style="rounded=1;whiteSpace=wrap;html=1;fillColor=#FF9999;" vertex="1" parent="1">
          <mxGeometry x="1260" y="40" width="120" height="60" as="geometry" />
        </mxCell>
        <mxCell id="tPzeA0ZCraDQcKaCvDTb-62" value="Tool" style="rounded=1;whiteSpace=wrap;html=1;fillColor=#A9C4EB;" vertex="1" parent="1">
          <mxGeometry x="1460" y="40" width="120" height="60" as="geometry" />
        </mxCell>
      </root>
    </mxGraphModel>
  </diagram>
</mxfile>
